<?xml version="1.0" encoding="UTF-8" standalone="no"?>
<!DOCTYPE svg PUBLIC "-//W3C//DTD SVG 1.1//EN" "http://www.w3.org/Graphics/SVG/1.1/DTD/svg11.dtd">
<svg xmlns="http://www.w3.org/2000/svg" xmlns:xl="http://www.w3.org/1999/xlink" version="1.1" viewBox="0 0 300 156.20494" width="25pc" height="156.20494pt" xmlns:dc="http://purl.org/dc/elements/1.1/">
  <metadata> Produced by OmniGraffle 7.6.1
    <dc:date>2018-03-09 14:56:54 +0000</dc:date>
  </metadata>
  <defs/>
  <g stroke="none" stroke-opacity="1" stroke-dasharray="none" fill="none" fill-opacity="1">
    <title>Canvas 1</title>
    <rect fill="white" width="300" height="156.20494"/>
    <g>
      <title>Layer 1</title>
      <path d="M 2557954e-19 17.830036 L 2557954e-19 23.92925 L 2557954e-19 150.10572 L 2557954e-19 156.20494 L 6.099214 156.20494 L 293.9008 156.20494 L 300 156.20494 L 300 150.10572 L 300 17.830036 L 288.06343 17.830036 L 287.8016 144.0065 L 12.198448 144.0065 L 12.198448 30.028463 L 246.6929 30.028463 L 246.6929 17.830036 L 6.099234 17.830036 Z" fill="#333"/>
      <path d="M 70.38493 88.4996 C 70.38489 78.04839 69.30482 70.58315 67.14462 66.10328 C 65.0162 61.62422 61.505896 59.38459 56.61392 59.38459 C 51.75366 59.38465 48.24336 61.62422 46.08322 66.10328 C 43.9548 70.58254 42.89069 78.047575 42.89069 88.4996 C 42.89067 98.91909 43.95486 106.36846 46.08322 110.84711 C 48.24336 115.32617 51.753456 117.5658 56.61392 117.5658 C 61.505896 117.5658 65.0162 115.34203 67.14462 110.89489 C 69.30476 106.41583 70.384725 98.9506 70.38493 88.49858 M 80.43908 88.49858 C 80.43901 100.88771 78.46948 110.13249 74.53056 116.2317 C 70.6232 122.33092 64.65106 125.38053 56.61412 125.38053 C 48.57719 125.38053 42.60504 122.34678 38.69768 116.27928 C 34.790323 110.21178 32.836744 100.95195 32.836744 88.49939 C 32.836744 76.07855 34.790384 66.81872 38.69768 60.719505 C 42.63676 54.62029 48.608905 51.570684 56.61412 51.570684 C 64.65106 51.570765 70.6232 54.62029 74.53056 60.719505 C 78.46964 66.81872 80.43908 76.07875 80.43908 88.49939" fill="#333"/>
      <path d="M 134.20304 55.29954 L 134.20304 65.06784 C 131.2805 63.19367 128.3421 61.779955 125.38784 60.827054 C 122.4653 59.87413 119.51105 59.39762 116.52487 59.39756 C 111.98218 59.39762 108.39259 60.46181 105.7559 62.59009 C 103.1192 64.6868 101.80096 67.52985 101.80096 71.11944 C 101.80094 74.264395 102.65865 76.66281 104.37402 78.31468 C 106.12116 79.96659 109.36134 81.34843 114.09454 82.46032 L 119.1455 83.60392 C 125.81641 85.16052 130.67667 87.60663 133.72648 90.94209 C 136.77609 94.27754 138.3009 98.82024 138.3009 104.56997 C 138.30083 111.33623 136.20419 116.4984 132.01098 120.05628 C 127.81777 123.61415 121.71856 125.39309 113.71334 125.39309 C 110.37788 125.39309 107.02636 125.02777 103.65919 124.29712 C 100.29202 123.59825 96.90878 122.53408 93.50969 121.10459 L 93.50969 110.85974 C 97.16292 113.17866 100.60958 114.87831 103.84969 115.95828 C 107.12171 117.03837 110.4096 117.57839 113.71334 117.57839 C 118.5736 117.57839 122.35389 116.49832 125.05401 114.33808 C 127.75413 112.14623 129.1043 109.09662 129.1043 105.18926 C 129.10426 101.63139 128.16713 98.9154 126.29297 97.04112 C 124.45045 95.16691 121.22615 93.72152 116.62002 92.70498 L 111.47391 91.51372 C 104.86643 90.02074 100.0696 87.76535 97.08363 84.74746 C 94.09745 81.72957 92.60457 77.67949 92.60457 72.59661 C 92.60457 66.24326 94.73299 61.16058 98.98963 57.34857 C 103.27819 53.504846 108.96429 51.582984 116.04832 51.582984 C 118.78016 51.583065 121.65512 51.90073 124.67301 52.535986 C 127.6909 53.139625 130.86738 54.06085 134.20304 55.299743" fill="#333"/>
      <path d="M 151.19951 52.859854 L 160.87246 52.859854 L 160.87246 82.02223 L 187.2231 82.02223 L 187.2231 52.859854 L 196.89604 52.859854 L 196.89604 124.00109 L 187.2231 124.00109 L 187.2231 90.12199 L 160.87246 90.12199 L 160.87246 124.00109 L 151.19951 124.00109 L 151.19951 52.859854" fill="#333"/>
      <path d="M 203.38845 52.859854 L 212.77555 52.859854 L 219.5896 110.61128 L 227.69016 72.39564 L 237.7443 72.39564 L 245.94002 110.70683 L 269.01945 0 L 278.40655 0 L 251.5151 124.00109 L 242.41387 124.00109 L 232.74092 81.73557 L 223.11555 124.00109 L 214.0143 124.00109 L 203.38825 52.859854" fill="#ff3a3a"/>
    </g>
  </g>
</svg>
